<svg xmlns="http://www.w3.org/2000/svg" viewBox="0 0 253.91 89.32"><defs><style>.cls-1{isolation:isolate;}.cls-2{mix-blend-mode:multiply;}.cls-3{fill:#d3d3d3;}.cls-4{fill:#ba181b;}</style></defs><g class="cls-1"><g id="Layer_2" data-name="Layer 2"><g id="Layer_1-2" data-name="Layer 1"><g class="cls-2"><path class="cls-3" d="M43,66.7H35.18V88.11H6.47V3h41C71.19,3,86.27,15.36,86.27,35.07c0,12.28-5.84,21.53-16.06,26.76L88.1,88.11H57.44Zm2.68-41.61H35.18V45H45.64c7.91,0,11.68-3.77,11.68-10S53.55,25.09,45.64,25.09Z"/><path class="cls-3" d="M179.22,88.11,179,49.3,160.48,80.44H147.83l-18.49-29.8V88.11H103.18V3h23.6l27.74,45.38L181.53,3h23.6l.24,85.16Z"/><path class="cls-3" d="M221.07,3h32.84L248.44,55.5h-21.9Zm.36,71.78c0-8.15,6.57-14.36,16.06-14.36s16.06,6.21,16.06,14.36S247,89.32,237.49,89.32,221.43,82.75,221.43,74.73Z"/></g><g class="cls-2"><path class="cls-4" d="M36.5,63.75H28.71V85.16H0V0H41C64.72,0,79.8,12.41,79.8,32.12c0,12.28-5.84,21.53-16,26.76L81.63,85.16H51Zm2.67-41.61H28.71v20H39.17c7.91,0,11.68-3.77,11.68-10S47.08,22.14,39.17,22.14Z"/><path class="cls-4" d="M172.75,85.16l-.25-38.81L154,77.49H141.36l-18.49-29.8V85.16H96.72V0h23.6l27.73,45.38L175.06,0h23.6l.24,85.16Z"/><path class="cls-4" d="M214.6,0h32.85L242,52.55h-21.9ZM215,71.77c0-8.15,6.56-14.35,16.05-14.35s16.06,6.2,16.06,14.35-6.57,14.6-16.06,14.6S215,79.8,215,71.77Z"/></g></g></g></g></svg>